<svg xmlns="http://www.w3.org/2000/svg" width="1180" height="820" viewBox="0 0 1180 820" role="img" aria-labelledby="title desc">
  <title id="title">PanoramaFloorPlan Agent Architecture</title>
  <desc id="desc">Architecture diagram showing direct HtmlDialog fetch for floor-plan orchestration, Ruby viewport export for render and edit flows, LLM intent routing with existing floor-plan draft and decoration JSON, LLM-supported floor-plan decoration and SVG plotting tools, room render tools, image tools, depth service, artifact download, and SVG preview viewer.</desc>
  <defs>
    <style>
      .bg { fill: #f7f8fa; }
      .box { fill: #ffffff; stroke: #cfd6df; stroke-width: 1.2; rx: 8; }
      .group { fill: #eef2f7; stroke: #c3ccd8; stroke-width: 1.2; rx: 10; }
      .accent { fill: #eef6ff; stroke: #94b7e8; stroke-width: 1.2; rx: 8; }
      .plan { fill: #f4f0ff; stroke: #aa93d5; stroke-width: 1.2; rx: 8; }
      .decision { fill: #fff7e8; stroke: #e1b564; stroke-width: 1.2; }
      .store { fill: #f2fbf6; stroke: #8bc79d; stroke-width: 1.2; rx: 8; }
      .title { fill: #202124; font: 700 22px -apple-system, BlinkMacSystemFont, "Segoe UI", sans-serif; }
      .h { fill: #202124; font: 700 14px -apple-system, BlinkMacSystemFont, "Segoe UI", sans-serif; }
      .t { fill: #30343a; font: 12px -apple-system, BlinkMacSystemFont, "Segoe UI", sans-serif; }
      .m { fill: #68717d; font: 11px -apple-system, BlinkMacSystemFont, "Segoe UI", sans-serif; }
      .edge { fill: none; stroke: #5d6875; stroke-width: 1.4; marker-end: url(#arrow); }
      .softedge { fill: none; stroke: #8a95a3; stroke-width: 1.2; stroke-dasharray: 5 4; marker-end: url(#arrowSoft); }
    </style>
    <marker id="arrow" markerWidth="10" markerHeight="10" refX="8" refY="3" orient="auto" markerUnits="strokeWidth">
      <path d="M0,0 L8,3 L0,6 Z" fill="#5d6875"/>
    </marker>
    <marker id="arrowSoft" markerWidth="10" markerHeight="10" refX="8" refY="3" orient="auto" markerUnits="strokeWidth">
      <path d="M0,0 L8,3 L0,6 Z" fill="#8a95a3"/>
    </marker>
  </defs>

  <rect class="bg" width="1180" height="820"/>
  <text class="title" x="40" y="42">PanoramaFloorPlan Agent Architecture</text>
  <text class="m" x="40" y="64">Floor-plan chat, Plot Floor Plan, and Generate Room Renders direct-fetch /agent/orchestrate; render/edit use Ruby for viewport export.</text>

  <rect class="group" x="36" y="92" width="286" height="586"/>
  <text class="h" x="56" y="122">SketchUp machine</text>

  <rect class="box" x="56" y="148" width="238" height="92"/>
  <text class="h" x="76" y="174">Agent Dialog</text>
  <text class="t" x="76" y="195">Chat, Plot Floor Plan, Room Renders</text>
  <text class="m" x="76" y="213">direct fetch for floor-plan flows</text>
  <text class="m" x="76" y="229">backend URL + UI version shown</text>

  <rect class="box" x="56" y="278" width="238" height="82"/>
  <text class="h" x="76" y="304">SketchUp Ruby Bridge</text>
  <text class="t" x="76" y="325">Viewport export + local imports</text>
  <text class="m" x="76" y="342">render/edit callbacks</text>
  <text class="m" x="76" y="356">viewer, import, reveal actions</text>

  <rect class="store" x="56" y="594" width="238" height="58"/>
  <text class="h" x="76" y="620">Local Artifacts</text>
  <text class="m" x="76" y="638">outputs/, pointclouds/</text>

  <rect class="group" x="366" y="92" width="758" height="700"/>
  <text class="h" x="386" y="122">Backend machine</text>
  <text class="m" x="386" y="140">Small set of request, routing, tool, and artifact stages</text>

  <rect class="accent" x="410" y="158" width="214" height="70"/>
  <text class="h" x="430" y="184">POST /uploads/viewport</text>
  <text class="t" x="430" y="205">Store exported viewport</text>
  <text class="m" x="430" y="220">exports/ source image</text>

  <rect class="accent" x="696" y="158" width="244" height="70"/>
  <text class="h" x="716" y="184">POST /agent/orchestrate</text>
  <text class="t" x="716" y="205">LLM intent routing</text>
  <text class="m" x="716" y="220">drafts + latest artifacts</text>

  <polygon class="decision" points="818,264 920,322 818,380 716,322"/>
  <text class="h" x="773" y="315">Orchestrator</text>
  <text class="m" x="787" y="335">Agents</text>

  <rect class="box" x="410" y="438" width="160" height="128"/>
  <text class="h" x="430" y="464">Render / Edit Agent</text>
  <text class="m" x="430" y="486">Tools:</text>
  <text class="m" x="430" y="504">generate_png</text>
  <text class="m" x="430" y="522">edit_image</text>
  <text class="m" x="430" y="540">depth_service</text>

  <rect class="plan" x="610" y="438" width="170" height="128"/>
  <text class="h" x="630" y="464">Floor Plan Agent</text>
  <text class="m" x="630" y="486">Tools:</text>
  <text class="m" x="630" y="504">discussion_draft</text>
  <text class="m" x="630" y="522">decorate_layout</text>
  <text class="m" x="630" y="540">plot_svg_png</text>

  <rect class="plan" x="820" y="438" width="128" height="128"/>
  <text class="h" x="840" y="464">Room Agent</text>
  <text class="m" x="840" y="486">Tools:</text>
  <text class="m" x="840" y="504">room_render</text>
  <text class="m" x="840" y="522">decor JSON</text>
  <text class="m" x="840" y="540">per-room PNGs</text>

  <rect class="plan" x="988" y="438" width="108" height="128"/>
  <text class="h" x="1008" y="464">Panorama</text>
  <text class="h" x="1008" y="480">Agent</text>
  <text class="m" x="1008" y="504">Tools:</text>
  <text class="m" x="1008" y="522">panorama</text>
  <text class="m" x="1008" y="540">two 16:9 PNGs</text>

  <rect class="box" x="706" y="604" width="214" height="58"/>
  <text class="h" x="726" y="630">Discuss / Clarify Agent</text>
  <text class="m" x="726" y="648">Tools: none</text>

  <rect class="store" x="610" y="706" width="214" height="58"/>
  <text class="h" x="630" y="732">Backend Artifacts</text>
  <text class="m" x="630" y="750">outputs/, pointclouds/</text>

  <rect class="accent" x="888" y="706" width="190" height="58"/>
  <text class="h" x="908" y="732">/artifacts/download</text>
  <text class="m" x="908" y="750">mirror files locally</text>

  <rect class="box" x="56" y="400" width="238" height="72"/>
  <text class="h" x="76" y="426">SVG Preview Viewer</text>
  <text class="t" x="76" y="447">Click thumbnail</text>
  <text class="m" x="76" y="463">opens larger SVG dialog</text>

  <path class="edge" d="M175 240 L175 278"/>
  <path class="edge" d="M294 194 C438 126 560 126 696 194"/>
  <path class="edge" d="M294 319 C346 319 346 193 410 193"/>
  <path class="edge" d="M624 193 L696 193"/>
  <path class="edge" d="M818 228 L818 264"/>
  <path class="edge" d="M716 322 C630 340 526 382 490 438"/>
  <path class="edge" d="M764 374 C724 392 704 412 695 438"/>
  <path class="edge" d="M872 368 C882 392 884 416 884 438"/>
  <path class="edge" d="M912 332 C1000 350 1042 390 1042 438"/>
  <path class="softedge" d="M818 380 L813 604"/>
  <path class="edge" d="M490 566 C540 650 610 690 676 706"/>
  <path class="edge" d="M695 566 L695 706"/>
  <path class="edge" d="M884 566 C840 650 780 690 724 706"/>
  <path class="edge" d="M1042 566 C966 650 856 694 780 706"/>
  <path class="edge" d="M824 735 L888 735"/>
  <path class="edge" d="M888 735 C754 800 376 752 175 652"/>
  <path class="softedge" d="M175 594 C175 524 175 492 175 472"/>
  <path class="softedge" d="M175 400 C175 380 175 374 175 360"/>

  <text class="m" x="328" y="286">render/edit upload viewport</text>
  <text class="m" x="520" y="112">direct floor-plan fetch</text>
  <text class="m" x="748" y="252">route request</text>
  <text class="m" x="826" y="696">remote files</text>
  <text class="m" x="384" y="804">download render PNG, depth preview, point cloud, floor-plan SVG, decoration JSON, and room PNGs; SketchUp imports stay Ruby-local</text>
</svg>
